STARTFONT 2.1
FONT -B&H-Lucida Bright-Medium-R-Normal--14-140-72-72-P-81-ISO8859-1
SIZE 14 72 72
FONTBOUNDINGBOX 22 18 -8 -3

STARTPROPERTIES 22
FONTNAME_REGISTRY "-"
FOUNDRY "B&H"
FAMILY_NAME "Lucida Bright"
WEIGHT_NAME "Medium"
SLANT "R"
SETWIDTH_NAME "Normal"
ADD_STYLE_NAME ""
PIXEL_SIZE 14
POINT_SIZE 140
RESOLUTION_X 72
RESOLUTION_Y 72
SPACING "P"
CHARSET_REGISTRY "ISO8859"
CHARSET_ENCODING "1"
FULL_NAME "LucidaBright"
AVERAGE_WIDTH 81
WEIGHT 10
X_HEIGHT 8
QUAD_WIDTH 8
DEFAULT_CHAR 32
FONT_DESCENT 3
FONT_ASCENT 15
ENDPROPERTIES

CHARS 190

STARTCHAR space
ENCODING 32
SWIDTH 333 0
DWIDTH 5 0
BBX 1 1 0 0
BITMAP
00
ENDCHAR

STARTCHAR exclam
ENCODING 33
SWIDTH 265 0
DWIDTH 4 0
BBX 1 11 1 0
BITMAP
80
80
80
80
80
80
80
80
00
00
80
ENDCHAR

STARTCHAR quotedbl
ENCODING 34
SWIDTH 386 0
DWIDTH 5 0
BBX 3 3 1 8
BITMAP
A0
A0
A0
ENDCHAR

STARTCHAR numbersign
ENCODING 35
SWIDTH 608 0
DWIDTH 9 0
BBX 9 11 0 0
BITMAP
0A00
1200
1200
7F80
1400
2400
FF00
2400
2800
4800
4800
ENDCHAR

STARTCHAR dollar
ENCODING 36
SWIDTH 608 0
DWIDTH 9 0
BBX 6 12 1 -1
BITMAP
7C
94
94
D0
70
18
1C
14
94
94
78
10
ENDCHAR

STARTCHAR percent
ENCODING 37
SWIDTH 675 0
DWIDTH 9 0
BBX 9 11 0 0
BITMAP
6080
9100
9200
9600
9400
6B00
1480
3480
2480
4480
8300
ENDCHAR

STARTCHAR ampersand
ENCODING 38
SWIDTH 690 0
DWIDTH 10 0
BBX 9 11 1 0
BITMAP
1800
2400
2400
2400
3B80
5100
8900
8900
8500
4300
3E80
ENDCHAR

STARTCHAR quoteright
ENCODING 39
SWIDTH 265 0
DWIDTH 4 0
BBX 1 4 1 7
BITMAP
80
80
80
80
ENDCHAR

STARTCHAR parenleft
ENCODING 40
SWIDTH 316 0
DWIDTH 4 0
BBX 3 13 1 -2
BITMAP
20
40
40
80
80
80
80
80
80
80
40
40
20
ENDCHAR

STARTCHAR parenright
ENCODING 41
SWIDTH 316 0
DWIDTH 4 0
BBX 3 13 7 -2
BITMAP
80
80
40
20
20
20
20
20
20
20
40
80
80
ENDCHAR

STARTCHAR asterisk
ENCODING 42
SWIDTH 470 0
DWIDTH 7 0
BBX 6 5 1 5
BITMAP
20
A4
78
50
48
ENDCHAR

STARTCHAR plus
ENCODING 43
SWIDTH 608 0
DWIDTH 9 0
BBX 9 9 0 0
BITMAP
0800
0800
0800
0800
FF80
0800
0800
0800
0800
ENDCHAR

STARTCHAR comma
ENCODING 44
SWIDTH 265 0
DWIDTH 4 0
BBX 1 4 1 -2
BITMAP
80
80
80
80
ENDCHAR

STARTCHAR minus
ENCODING 45
SWIDTH 608 0
DWIDTH 9 0
BBX 8 1 0 4
BITMAP
FF
ENDCHAR

STARTCHAR period
ENCODING 46
SWIDTH 265 0
DWIDTH 4 0
BBX 1 1 1 0
BITMAP
80
ENDCHAR

STARTCHAR slash
ENCODING 47
SWIDTH 512 0
DWIDTH 7 0
BBX 7 13 0 -2
BITMAP
02
06
04
0C
08
18
10
10
20
20
40
40
80
ENDCHAR

STARTCHAR zero
ENCODING 48
SWIDTH 608 0
DWIDTH 9 0
BBX 7 11 1 0
BITMAP
38
44
82
82
82
82
82
82
82
44
38
ENDCHAR

STARTCHAR one
ENCODING 49
SWIDTH 608 0
DWIDTH 9 0
BBX 5 11 2 0
BITMAP
E0
20
20
20
20
20
20
20
20
20
F8
ENDCHAR

STARTCHAR two
ENCODING 50
SWIDTH 608 0
DWIDTH 9 0
BBX 6 11 1 0
BITMAP
78
8C
84
04
04
08
30
60
40
80
FC
ENDCHAR

STARTCHAR three
ENCODING 51
SWIDTH 608 0
DWIDTH 9 0
BBX 6 11 1 0
BITMAP
F8
8C
84
04
08
78
0C
04
84
8C
F8
ENDCHAR

STARTCHAR four
ENCODING 52
SWIDTH 608 0
DWIDTH 9 0
BBX 7 11 1 0
BITMAP
04
0C
14
34
24
44
C4
FE
04
04
0E
ENDCHAR

STARTCHAR five
ENCODING 53
SWIDTH 608 0
DWIDTH 9 0
BBX 5 11 2 0
BITMAP
F8
80
80
80
80
F0
18
08
88
98
F0
ENDCHAR

STARTCHAR six
ENCODING 54
SWIDTH 608 0
DWIDTH 9 0
BBX 6 11 1 0
BITMAP
3C
44
84
80
B8
CC
84
84
84
48
38
ENDCHAR

STARTCHAR seven
ENCODING 55
SWIDTH 608 0
DWIDTH 9 0
BBX 6 11 2 0
BITMAP
FC
0C
08
18
10
30
20
60
40
40
40
ENDCHAR

STARTCHAR eight
ENCODING 56
SWIDTH 608 0
DWIDTH 9 0
BBX 6 11 1 0
BITMAP
78
CC
84
84
68
70
C8
84
84
CC
78
ENDCHAR

STARTCHAR nine
ENCODING 57
SWIDTH 608 0
DWIDTH 9 0
BBX 6 11 1 0
BITMAP
70
48
84
84
84
CC
74
04
84
88
F0
ENDCHAR

STARTCHAR colon
ENCODING 58
SWIDTH 265 0
DWIDTH 4 0
BBX 1 8 1 0
BITMAP
80
00
00
00
00
00
00
80
ENDCHAR

STARTCHAR semicolon
ENCODING 59
SWIDTH 265 0
DWIDTH 4 0
BBX 1 10 1 -2
BITMAP
80
00
00
00
00
00
80
80
80
80
ENDCHAR

STARTCHAR less
ENCODING 60
SWIDTH 608 0
DWIDTH 9 0
BBX 8 7 0 0
BITMAP
01
0E
30
C0
30
0E
01
ENDCHAR

STARTCHAR equal
ENCODING 61
SWIDTH 608 0
DWIDTH 9 0
BBX 8 3 0 2
BITMAP
FF
00
FF
ENDCHAR

STARTCHAR greater
ENCODING 62
SWIDTH 608 0
DWIDTH 9 0
BBX 8 7 0 0
BITMAP
80
70
0C
03
0C
70
80
ENDCHAR

STARTCHAR question
ENCODING 63
SWIDTH 480 0
DWIDTH 7 0
BBX 5 11 1 0
BITMAP
F0
88
88
08
10
30
20
20
00
00
20
ENDCHAR

STARTCHAR at
ENCODING 64
SWIDTH 873 0
DWIDTH 12 0
BBX 12 11 0 0
BITMAP
0780
1860
2020
4790
8990
9110
9330
9720
DDC0
6200
3C00
ENDCHAR

STARTCHAR A
ENCODING 65
SWIDTH 744 0
DWIDTH 10 0
BBX 10 11 0 0
BITMAP
0400
0C00
0C00
1200
1200
1200
2100
3F00
4180
4080
E1C0
ENDCHAR

STARTCHAR B
ENCODING 66
SWIDTH 609 0
DWIDTH 9 0
BBX 7 11 1 0
BITMAP
FC
46
42
46
44
7C
46
42
42
46
FC
ENDCHAR

STARTCHAR C
ENCODING 67
SWIDTH 695 0
DWIDTH 10 0
BBX 8 11 1 0
BITMAP
1E
61
41
80
80
80
80
80
40
61
1E
ENDCHAR

STARTCHAR D
ENCODING 68
SWIDTH 768 0
DWIDTH 11 0
BBX 9 11 1 0
BITMAP
FE00
4300
4100
4080
4080
4080
4080
4080
4100
4300
FE00
ENDCHAR

STARTCHAR E
ENCODING 69
SWIDTH 566 0
DWIDTH 8 0
BBX 7 11 0 0
BITMAP
FE
42
40
40
44
7C
44
40
40
42
FE
ENDCHAR

STARTCHAR F
ENCODING 70
SWIDTH 548 0
DWIDTH 8 0
BBX 7 11 0 0
BITMAP
FE
42
40
40
44
7C
44
40
40
40
E0
ENDCHAR

STARTCHAR G
ENCODING 71
SWIDTH 732 0
DWIDTH 10 0
BBX 9 11 1 0
BITMAP
1F00
6100
4100
8000
8000
8000
8380
8100
4100
6100
1F00
ENDCHAR

STARTCHAR H
ENCODING 72
SWIDTH 771 0
DWIDTH 11 0
BBX 9 11 1 0
BITMAP
E380
4100
4100
4100
4100
7F00
4100
4100
4100
4100
E380
ENDCHAR

STARTCHAR I
ENCODING 73
SWIDTH 325 0
DWIDTH 5 0
BBX 3 11 1 0
BITMAP
E0
40
40
40
40
40
40
40
40
40
E0
ENDCHAR

STARTCHAR J
ENCODING 74
SWIDTH 422 0
DWIDTH 6 0
BBX 5 13 0 -2
BITMAP
38
10
10
10
10
10
10
10
10
10
10
90
E0
ENDCHAR

STARTCHAR K
ENCODING 75
SWIDTH 708 0
DWIDTH 10 0
BBX 9 11 1 0
BITMAP
E700
4200
4400
4800
5000
6000
5000
4800
4400
4200
E780
ENDCHAR

STARTCHAR L
ENCODING 76
SWIDTH 557 0
DWIDTH 8 0
BBX 7 11 0 0
BITMAP
E0
40
40
40
40
40
40
40
40
42
FE
ENDCHAR

STARTCHAR M
ENCODING 77
SWIDTH 860 0
DWIDTH 12 0
BBX 11 11 1 0
BITMAP
E0E0
60C0
70C0
5140
5140
4940
4A40
4A40
4440
4440
E0E0
ENDCHAR

STARTCHAR N
ENCODING 78
SWIDTH 751 0
DWIDTH 11 0
BBX 10 11 0 0
BITMAP
C1C0
6080
5080
5880
4880
4480
4680
4280
4180
4080
E080
ENDCHAR

STARTCHAR O
ENCODING 79
SWIDTH 777 0
DWIDTH 11 0
BBX 9 11 1 0
BITMAP
3E00
6300
4100
8080
8080
8080
8080
8080
4100
6300
3E00
ENDCHAR

STARTCHAR P
ENCODING 80
SWIDTH 573 0
DWIDTH 8 0
BBX 7 11 1 0
BITMAP
FC
46
42
42
42
44
78
40
40
40
E0
ENDCHAR

STARTCHAR Q
ENCODING 81
SWIDTH 778 0
DWIDTH 11 0
BBX 11 13 1 -2
BITMAP
3E00
6300
4100
8080
8080
8080
8080
8080
4180
6300
3E00
0200
01E0
ENDCHAR

STARTCHAR R
ENCODING 82
SWIDTH 679 0
DWIDTH 10 0
BBX 9 11 0 0
BITMAP
FC00
4600
4200
4200
4200
4C00
7800
4400
4600
4200
E180
ENDCHAR

STARTCHAR S
ENCODING 83
SWIDTH 542 0
DWIDTH 8 0
BBX 6 11 1 0
BITMAP
7C
C4
84
80
60
30
08
04
84
8C
F8
ENDCHAR

STARTCHAR T
ENCODING 84
SWIDTH 663 0
DWIDTH 9 0
BBX 9 11 0 0
BITMAP
FF80
0800
0800
0800
0800
0800
0800
0800
0800
0800
1C00
ENDCHAR

STARTCHAR U
ENCODING 85
SWIDTH 719 0
DWIDTH 10 0
BBX 9 11 1 0
BITMAP
E380
4100
4100
4100
4100
4100
4100
4100
4100
2200
3E00
ENDCHAR

STARTCHAR V
ENCODING 86
SWIDTH 699 0
DWIDTH 10 0
BBX 10 11 0 0
BITMAP
F1C0
4080
2080
2180
1100
1100
1200
0A00
0A00
0400
0400
ENDCHAR

STARTCHAR W
ENCODING 87
SWIDTH 925 0
DWIDTH 13 0
BBX 13 11 0 0
BITMAP
F238
6210
2210
2510
2520
2520
1520
18A0
18C0
18C0
1040
ENDCHAR

STARTCHAR X
ENCODING 88
SWIDTH 657 0
DWIDTH 9 0
BBX 9 11 0 0
BITMAP
F380
2100
3200
1E00
0C00
1400
1400
2200
4200
4300
E780
ENDCHAR

STARTCHAR Y
ENCODING 89
SWIDTH 678 0
DWIDTH 9 0
BBX 9 11 0 0
BITMAP
F180
6100
3100
1200
1A00
0C00
0800
0800
0800
0800
1C00
ENDCHAR

STARTCHAR Z
ENCODING 90
SWIDTH 633 0
DWIDTH 9 0
BBX 7 11 1 0
BITMAP
FE
84
04
08
18
10
30
20
60
42
FE
ENDCHAR

STARTCHAR bracketleft
ENCODING 91
SWIDTH 316 0
DWIDTH 4 0
BBX 3 13 1 -2
BITMAP
E0
80
80
80
80
80
80
80
80
80
80
80
E0
ENDCHAR

STARTCHAR backslash
ENCODING 92
SWIDTH 512 0
DWIDTH 7 0
BBX 7 13 0 -2
BITMAP
80
40
40
20
20
10
10
18
08
0C
04
06
02
ENDCHAR

STARTCHAR bracketright
ENCODING 93
SWIDTH 316 0
DWIDTH 4 0
BBX 3 13 0 -2
BITMAP
E0
20
20
20
20
20
20
20
20
20
20
20
E0
ENDCHAR

STARTCHAR asciicircum
ENCODING 94
SWIDTH 608 0
DWIDTH 9 0
BBX 8 9 0 2
BITMAP
08
18
18
24
24
66
42
42
81
ENDCHAR

STARTCHAR underscore
ENCODING 95
SWIDTH 500 0
DWIDTH 7 0
BBX 6 1 1 -1
BITMAP
FC
ENDCHAR

STARTCHAR quoteleft
ENCODING 96
SWIDTH 265 0
DWIDTH 4 0
BBX 1 4 1 7
BITMAP
80
80
80
80
ENDCHAR

STARTCHAR a
ENCODING 97
SWIDTH 543 0
DWIDTH 8 0
BBX 6 8 1 0
BITMAP
F0
88
08
78
C8
88
88
7C
ENDCHAR

STARTCHAR b
ENCODING 98
SWIDTH 611 0
DWIDTH 9 0
BBX 7 11 0 0
BITMAP
C0
40
40
5C
66
42
42
42
42
44
7C
ENDCHAR

STARTCHAR c
ENCODING 99
SWIDTH 509 0
DWIDTH 7 0
BBX 6 8 1 0
BITMAP
3C
44
84
80
80
80
40
3C
ENDCHAR

STARTCHAR d
ENCODING 100
SWIDTH 642 0
DWIDTH 9 0
BBX 7 11 1 0
BITMAP
0C
04
04
7C
44
84
84
84
84
CC
76
ENDCHAR

STARTCHAR e
ENCODING 101
SWIDTH 530 0
DWIDTH 7 0
BBX 6 8 1 0
BITMAP
38
44
84
FC
80
80
44
38
ENDCHAR

STARTCHAR f
ENCODING 102
SWIDTH 404 0
DWIDTH 6 0
BBX 5 11 1 0
BITMAP
38
48
40
F0
40
40
40
40
40
40
E0
ENDCHAR

STARTCHAR g
ENCODING 103
SWIDTH 571 0
DWIDTH 8 0
BBX 7 11 1 -3
BITMAP
3E
44
44
44
44
38
40
7E
82
82
7C
ENDCHAR

STARTCHAR h
ENCODING 104
SWIDTH 633 0
DWIDTH 9 0
BBX 8 11 1 0
BITMAP
C0
40
40
5C
62
42
42
42
42
42
E7
ENDCHAR

STARTCHAR i
ENCODING 105
SWIDTH 307 0
DWIDTH 4 0
BBX 3 11 1 0
BITMAP
40
00
00
C0
40
40
40
40
40
40
E0
ENDCHAR

STARTCHAR j
ENCODING 106
SWIDTH 346 0
DWIDTH 5 0
BBX 4 14 0 -3
BITMAP
10
00
00
30
10
10
10
10
10
10
10
90
90
E0
ENDCHAR

STARTCHAR k
ENCODING 107
SWIDTH 599 0
DWIDTH 8 0
BBX 8 11 0 0
BITMAP
C0
40
40
4E
44
58
60
50
48
44
E7
ENDCHAR

STARTCHAR l
ENCODING 108
SWIDTH 313 0
DWIDTH 4 0
BBX 3 11 1 0
BITMAP
C0
40
40
40
40
40
40
40
40
40
E0
ENDCHAR

STARTCHAR m
ENCODING 109
SWIDTH 946 0
DWIDTH 13 0
BBX 13 8 0 0
BITMAP
DEE0
6310
4210
4210
4210
4210
4210
E738
ENDCHAR

STARTCHAR n
ENCODING 110
SWIDTH 633 0
DWIDTH 9 0
BBX 8 8 1 0
BITMAP
DC
62
42
42
42
42
42
E7
ENDCHAR

STARTCHAR o
ENCODING 111
SWIDTH 602 0
DWIDTH 8 0
BBX 7 8 1 0
BITMAP
38
44
82
82
82
82
44
38
ENDCHAR

STARTCHAR p
ENCODING 112
SWIDTH 642 0
DWIDTH 9 0
BBX 7 11 1 -3
BITMAP
DC
66
42
42
42
42
44
7C
40
40
E0
ENDCHAR

STARTCHAR q
ENCODING 113
SWIDTH 617 0
DWIDTH 9 0
BBX 7 11 1 -3
BITMAP
7C
44
84
84
84
84
CC
74
04
04
0E
ENDCHAR

STARTCHAR r
ENCODING 114
SWIDTH 440 0
DWIDTH 6 0
BBX 5 8 0 0
BITMAP
F8
48
40
40
40
40
40
E0
ENDCHAR

STARTCHAR s
ENCODING 115
SWIDTH 504 0
DWIDTH 7 0
BBX 5 8 1 0
BITMAP
78
88
88
60
38
88
88
F0
ENDCHAR

STARTCHAR t
ENCODING 116
SWIDTH 392 0
DWIDTH 5 0
BBX 4 10 1 0
BITMAP
40
40
F0
40
40
40
40
40
40
30
ENDCHAR

STARTCHAR u
ENCODING 117
SWIDTH 633 0
DWIDTH 9 0
BBX 8 8 0 0
BITMAP
C6
42
42
42
42
42
46
3B
ENDCHAR

STARTCHAR v
ENCODING 118
SWIDTH 545 0
DWIDTH 8 0
BBX 8 8 0 0
BITMAP
E7
42
22
24
34
18
18
08
ENDCHAR

STARTCHAR w
ENCODING 119
SWIDTH 795 0
DWIDTH 11 0
BBX 11 8 0 0
BITMAP
E460
4420
4E40
2A40
2940
3180
1180
1080
ENDCHAR

STARTCHAR x
ENCODING 120
SWIDTH 557 0
DWIDTH 8 0
BBX 8 8 0 0
BITMAP
E7
62
34
18
18
28
44
CF
ENDCHAR

STARTCHAR y
ENCODING 121
SWIDTH 551 0
DWIDTH 8 0
BBX 8 11 0 -3
BITMAP
E3
42
22
22
24
14
14
08
10
30
60
ENDCHAR

STARTCHAR z
ENCODING 122
SWIDTH 595 0
DWIDTH 8 0
BBX 6 8 1 0
BITMAP
FC
88
18
10
20
60
44
FC
ENDCHAR

STARTCHAR braceleft
ENCODING 123
SWIDTH 343 0
DWIDTH 5 0
BBX 4 13 0 -2
BITMAP
10
20
20
20
20
60
80
60
20
20
20
20
10
ENDCHAR

STARTCHAR bar
ENCODING 124
SWIDTH 241 0
DWIDTH 3 0
BBX 1 13 1 -2
BITMAP
80
80
80
80
80
80
80
80
80
80
80
80
80
ENDCHAR

STARTCHAR braceright
ENCODING 125
SWIDTH 343 0
DWIDTH 5 0
BBX 4 13 9 -2
BITMAP
80
40
40
40
40
40
30
40
40
40
40
40
80
ENDCHAR

STARTCHAR asciitilde
ENCODING 126
SWIDTH 608 0
DWIDTH 9 0
BBX 8 2 0 3
BITMAP
71
8F
ENDCHAR

STARTCHAR exclamdown
ENCODING 161
SWIDTH 265 0
DWIDTH 4 0
BBX 1 11 1 -3
BITMAP
80
00
00
80
80
80
80
80
80
80
80
ENDCHAR

STARTCHAR cent
ENCODING 162
SWIDTH 608 0
DWIDTH 9 0
BBX 6 11 1 0
BITMAP
10
3C
54
94
90
90
90
90
50
7C
10
ENDCHAR

STARTCHAR sterling
ENCODING 163
SWIDTH 608 0
DWIDTH 9 0
BBX 5 11 2 0
BITMAP
38
48
48
40
40
F0
40
40
40
40
F8
ENDCHAR

STARTCHAR currency
ENCODING 164
SWIDTH 608 0
DWIDTH 9 0
BBX 8 9 0 1
BITMAP
81
5E
24
42
42
42
24
5A
81
ENDCHAR

STARTCHAR yen
ENCODING 165
SWIDTH 608 0
DWIDTH 9 0
BBX 9 11 0 0
BITMAP
F380
6100
2300
1200
1C00
0C00
3E00
0800
3E00
0800
1C00
ENDCHAR

STARTCHAR brokenbar
ENCODING 166
SWIDTH 241 0
DWIDTH 3 0
BBX 1 13 1 -2
BITMAP
80
80
80
80
80
80
00
80
80
80
80
80
80
ENDCHAR

STARTCHAR section
ENCODING 167
SWIDTH 608 0
DWIDTH 9 0
BBX 6 14 1 -3
BITMAP
7C
C4
84
80
60
98
84
84
64
18
04
84
8C
F8
ENDCHAR

STARTCHAR dieresis
ENCODING 168
SWIDTH 602 0
DWIDTH 8 0
BBX 4 1 2 10
BITMAP
90
ENDCHAR

STARTCHAR copyright
ENCODING 169
SWIDTH 855 0
DWIDTH 12 0
BBX 11 11 0 0
BITMAP
1F00
2080
4040
8F20
9920
9020
9020
9820
4F40
2080
1F00
ENDCHAR

STARTCHAR ordfeminine
ENCODING 170
SWIDTH 428 0
DWIDTH 6 0
BBX 5 7 1 4
BITMAP
F0
90
10
70
90
90
F8
ENDCHAR

STARTCHAR guillemotleft
ENCODING 171
SWIDTH 530 0
DWIDTH 7 0
BBX 5 5 1 1
BITMAP
28
50
A0
50
28
ENDCHAR

STARTCHAR logicalnot
ENCODING 172
SWIDTH 608 0
DWIDTH 9 0
BBX 8 3 0 2
BITMAP
FF
01
01
ENDCHAR

STARTCHAR hyphen
ENCODING 173
SWIDTH 325 0
DWIDTH 5 0
BBX 3 1 1 4
BITMAP
E0
ENDCHAR

STARTCHAR registered
ENCODING 174
SWIDTH 608 0
DWIDTH 9 0
BBX 7 7 1 4
BITMAP
38
44
BA
B2
EA
44
38
ENDCHAR

STARTCHAR macron
ENCODING 175
SWIDTH 602 0
DWIDTH 8 0
BBX 4 1 2 9
BITMAP
F0
ENDCHAR

STARTCHAR degree
ENCODING 176
SWIDTH 259 0
DWIDTH 4 0
BBX 3 4 0 7
BITMAP
40
A0
A0
40
ENDCHAR

STARTCHAR plusminus
ENCODING 177
SWIDTH 608 0
DWIDTH 9 0
BBX 9 9 0 0
BITMAP
0800
0800
0800
FF80
0800
0800
0800
0000
FF80
ENDCHAR

STARTCHAR twosuperior
ENCODING 178
SWIDTH 365 0
DWIDTH 5 0
BBX 4 6 -7 5
BITMAP
F0
90
10
60
C0
F0
ENDCHAR

STARTCHAR threesuperior
ENCODING 179
SWIDTH 365 0
DWIDTH 5 0
BBX 4 6 -7 5
BITMAP
F0
10
60
10
10
E0
ENDCHAR

STARTCHAR acute
ENCODING 180
SWIDTH 602 0
DWIDTH 8 0
BBX 3 2 3 9
BITMAP
60
80
ENDCHAR

STARTCHAR mu
ENCODING 181
SWIDTH 626 0
DWIDTH 9 0
BBX 8 10 0 -2
BITMAP
C6
42
42
42
42
42
46
7B
40
40
ENDCHAR

STARTCHAR paragraph
ENCODING 182
SWIDTH 608 0
DWIDTH 9 0
BBX 6 13 1 -2
BITMAP
7C
F4
F4
F4
74
14
14
14
14
14
14
14
14
ENDCHAR

STARTCHAR periodcentered
ENCODING 183
SWIDTH 608 0
DWIDTH 9 0
BBX 1 1 4 3
BITMAP
80
ENDCHAR

STARTCHAR cedilla
ENCODING 184
SWIDTH 602 0
DWIDTH 8 0
BBX 2 3 3 -3
BITMAP
80
40
C0
ENDCHAR

STARTCHAR onesuperior
ENCODING 185
SWIDTH 365 0
DWIDTH 5 0
BBX 3 6 -8 5
BITMAP
C0
40
40
40
40
E0
ENDCHAR

STARTCHAR ordmasculine
ENCODING 186
SWIDTH 428 0
DWIDTH 6 0
BBX 5 7 0 4
BITMAP
70
D8
88
88
88
D8
70
ENDCHAR

STARTCHAR guillemotright
ENCODING 187
SWIDTH 530 0
DWIDTH 7 0
BBX 5 5 1 1
BITMAP
A0
50
28
50
A0
ENDCHAR

STARTCHAR onequarter
ENCODING 188
SWIDTH 766 0
DWIDTH 11 0
BBX 10 11 3 0
BITMAP
C180
4300
4200
4400
4C00
E880
1180
2380
2280
47C0
81C0
ENDCHAR

STARTCHAR onehalf
ENCODING 189
SWIDTH 766 0
DWIDTH 11 0
BBX 9 11 3 0
BITMAP
C180
4300
4200
4400
4C00
EF80
1480
2080
2300
4600
8780
ENDCHAR

STARTCHAR threequarters
ENCODING 190
SWIDTH 766 0
DWIDTH 11 0
BBX 10 11 3 0
BITMAP
F180
1300
6200
1400
1C00
E880
1180
2380
2280
47C0
81C0
ENDCHAR

STARTCHAR questiondown
ENCODING 191
SWIDTH 480 0
DWIDTH 7 0
BBX 5 11 1 -3
BITMAP
20
00
00
20
20
60
40
80
88
88
78
ENDCHAR

STARTCHAR Agrave
ENCODING 192
SWIDTH 744 0
DWIDTH 10 0
BBX 10 14 0 0
BITMAP
0C00
0200
0000
0400
0C00
0C00
1200
1200
1200
2100
3F00
4180
4080
E1C0
ENDCHAR

STARTCHAR Aacute
ENCODING 193
SWIDTH 744 0
DWIDTH 10 0
BBX 10 14 0 0
BITMAP
0600
0800
0000
0400
0C00
0C00
1200
1200
1200
2100
3F00
4180
4080
E1C0
ENDCHAR

STARTCHAR Acircumflex
ENCODING 194
SWIDTH 744 0
DWIDTH 10 0
BBX 10 14 0 0
BITMAP
0E00
1100
0000
0400
0C00
0C00
1200
1200
1200
2100
3F00
4180
4080
E1C0
ENDCHAR

STARTCHAR Atilde
ENCODING 195
SWIDTH 744 0
DWIDTH 10 0
BBX 10 14 0 0
BITMAP
1900
1700
0000
0400
0C00
0C00
1200
1200
1200
2100
3F00
4180
4080
E1C0
ENDCHAR

STARTCHAR Adieresis
ENCODING 196
SWIDTH 744 0
DWIDTH 10 0
BBX 10 13 0 0
BITMAP
1200
0000
0400
0C00
0C00
1200
1200
1200
2100
3F00
4180
4080
E1C0
ENDCHAR

STARTCHAR Aring
ENCODING 197
SWIDTH 744 0
DWIDTH 10 0
BBX 10 15 0 0
BITMAP
0E00
0A00
0E00
0000
0400
0C00
0C00
1200
1200
1200
2100
3F00
4180
4080
E1C0
ENDCHAR

STARTCHAR AE
ENCODING 198
SWIDTH 919 0
DWIDTH 13 0
BBX 12 11 0 0
BITMAP
03F0
0610
0A00
0A00
1220
13E0
2220
3E00
4200
4210
C7F0
ENDCHAR

STARTCHAR Ccedilla
ENCODING 199
SWIDTH 695 0
DWIDTH 10 0
BBX 8 14 1 -3
BITMAP
1E
61
41
80
80
80
80
80
40
61
1E
10
08
18
ENDCHAR

STARTCHAR Egrave
ENCODING 200
SWIDTH 566 0
DWIDTH 8 0
BBX 7 14 0 0
BITMAP
30
08
00
FE
42
40
40
44
7C
44
40
40
42
FE
ENDCHAR

STARTCHAR Eacute
ENCODING 201
SWIDTH 566 0
DWIDTH 8 0
BBX 7 14 0 0
BITMAP
18
20
00
FE
42
40
40
44
7C
44
40
40
42
FE
ENDCHAR

STARTCHAR Ecircumflex
ENCODING 202
SWIDTH 566 0
DWIDTH 8 0
BBX 7 14 0 0
BITMAP
38
44
00
FE
42
40
40
44
7C
44
40
40
42
FE
ENDCHAR

STARTCHAR Edieresis
ENCODING 203
SWIDTH 566 0
DWIDTH 8 0
BBX 7 13 0 0
BITMAP
24
00
FE
42
40
40
44
7C
44
40
40
42
FE
ENDCHAR

STARTCHAR Igrave
ENCODING 204
SWIDTH 325 0
DWIDTH 5 0
BBX 3 14 1 0
BITMAP
C0
20
00
E0
40
40
40
40
40
40
40
40
40
E0
ENDCHAR

STARTCHAR Iacute
ENCODING 205
SWIDTH 325 0
DWIDTH 5 0
BBX 3 14 1 0
BITMAP
60
80
00
E0
40
40
40
40
40
40
40
40
40
E0
ENDCHAR

STARTCHAR Icircumflex
ENCODING 206
SWIDTH 325 0
DWIDTH 5 0
BBX 5 14 2 0
BITMAP
70
88
00
70
20
20
20
20
20
20
20
20
20
70
ENDCHAR

STARTCHAR Idieresis
ENCODING 207
SWIDTH 325 0
DWIDTH 5 0
BBX 4 13 1 0
BITMAP
90
00
E0
40
40
40
40
40
40
40
40
40
E0
ENDCHAR

STARTCHAR Eth
ENCODING 208
SWIDTH 768 0
DWIDTH 11 0
BBX 9 11 1 0
BITMAP
FE00
4300
4100
4080
4080
F080
4080
4080
4100
4300
FE00
ENDCHAR

STARTCHAR Ntilde
ENCODING 209
SWIDTH 751 0
DWIDTH 11 0
BBX 10 14 0 0
BITMAP
1900
1700
0000
C1C0
6080
5080
5880
4880
4480
4680
4280
4180
4080
E080
ENDCHAR

STARTCHAR Ograve
ENCODING 210
SWIDTH 777 0
DWIDTH 11 0
BBX 9 14 1 0
BITMAP
1800
0400
0000
3E00
6300
4100
8080
8080
8080
8080
8080
4100
6300
3E00
ENDCHAR

STARTCHAR Oacute
ENCODING 211
SWIDTH 777 0
DWIDTH 11 0
BBX 9 14 1 0
BITMAP
0C00
1000
0000
3E00
6300
4100
8080
8080
8080
8080
8080
4100
6300
3E00
ENDCHAR

STARTCHAR Ocircumflex
ENCODING 212
SWIDTH 777 0
DWIDTH 11 0
BBX 9 14 1 0
BITMAP
1C00
2200
0000
3E00
6300
4100
8080
8080
8080
8080
8080
4100
6300
3E00
ENDCHAR

STARTCHAR Otilde
ENCODING 213
SWIDTH 777 0
DWIDTH 11 0
BBX 9 14 1 0
BITMAP
3200
2E00
0000
3E00
6300
4100
8080
8080
8080
8080
8080
4100
6300
3E00
ENDCHAR

STARTCHAR Odieresis
ENCODING 214
SWIDTH 777 0
DWIDTH 11 0
BBX 9 13 1 0
BITMAP
1200
0000
3E00
6300
4100
8080
8080
8080
8080
8080
4100
6300
3E00
ENDCHAR

STARTCHAR multiply
ENCODING 215
SWIDTH 608 0
DWIDTH 9 0
BBX 8 8 0 0
BITMAP
81
42
24
1C
18
34
42
81
ENDCHAR

STARTCHAR Oslash
ENCODING 216
SWIDTH 777 0
DWIDTH 11 0
BBX 10 11 1 0
BITMAP
3EC0
6380
4300
8280
8480
8880
9880
B080
6100
6300
BE00
ENDCHAR

STARTCHAR Ugrave
ENCODING 217
SWIDTH 719 0
DWIDTH 10 0
BBX 9 14 1 0
BITMAP
1800
0400
0000
E380
4100
4100
4100
4100
4100
4100
4100
4100
2200
3E00
ENDCHAR

STARTCHAR Uacute
ENCODING 218
SWIDTH 719 0
DWIDTH 10 0
BBX 9 14 1 0
BITMAP
0C00
1000
0000
E380
4100
4100
4100
4100
4100
4100
4100
4100
2200
3E00
ENDCHAR

STARTCHAR Ucircumflex
ENCODING 219
SWIDTH 719 0
DWIDTH 10 0
BBX 9 14 1 0
BITMAP
1C00
2200
0000
E380
4100
4100
4100
4100
4100
4100
4100
4100
2200
3E00
ENDCHAR

STARTCHAR Udieresis
ENCODING 220
SWIDTH 719 0
DWIDTH 10 0
BBX 9 13 1 0
BITMAP
1200
0000
E380
4100
4100
4100
4100
4100
4100
4100
4100
2200
3E00
ENDCHAR

STARTCHAR Yacute
ENCODING 221
SWIDTH 678 0
DWIDTH 9 0
BBX 9 14 0 0
BITMAP
0C00
1000
0000
F180
6100
3100
1200
1A00
0C00
0800
0800
0800
0800
1C00
ENDCHAR

STARTCHAR Thorn
ENCODING 222
SWIDTH 573 0
DWIDTH 8 0
BBX 7 11 1 0
BITMAP
E0
40
7C
46
42
42
42
44
78
40
E0
ENDCHAR

STARTCHAR germandbls
ENCODING 223
SWIDTH 614 0
DWIDTH 9 0
BBX 7 11 1 0
BITMAP
30
48
48
50
50
50
4C
44
42
52
FC
ENDCHAR

STARTCHAR agrave
ENCODING 224
SWIDTH 543 0
DWIDTH 8 0
BBX 6 11 1 0
BITMAP
60
10
00
F0
88
08
78
C8
88
88
7C
ENDCHAR

STARTCHAR aacute
ENCODING 225
SWIDTH 543 0
DWIDTH 8 0
BBX 6 11 1 0
BITMAP
18
20
00
F0
88
08
78
C8
88
88
7C
ENDCHAR

STARTCHAR acircumflex
ENCODING 226
SWIDTH 543 0
DWIDTH 8 0
BBX 6 11 1 0
BITMAP
70
88
00
F0
88
08
78
C8
88
88
7C
ENDCHAR

STARTCHAR atilde
ENCODING 227
SWIDTH 543 0
DWIDTH 8 0
BBX 6 11 1 0
BITMAP
C8
B8
00
F0
88
08
78
C8
88
88
7C
ENDCHAR

STARTCHAR adieresis
ENCODING 228
SWIDTH 543 0
DWIDTH 8 0
BBX 6 10 1 0
BITMAP
48
00
F0
88
08
78
C8
88
88
7C
ENDCHAR

STARTCHAR aring
ENCODING 229
SWIDTH 543 0
DWIDTH 8 0
BBX 6 12 1 0
BITMAP
70
50
70
00
F0
88
08
78
C8
88
88
7C
ENDCHAR

STARTCHAR ae
ENCODING 230
SWIDTH 819 0
DWIDTH 11 0
BBX 9 8 1 0
BITMAP
F700
8880
0880
7F80
C800
8800
8C80
7700
ENDCHAR

STARTCHAR ccedilla
ENCODING 231
SWIDTH 509 0
DWIDTH 7 0
BBX 6 11 1 -3
BITMAP
3C
44
84
80
80
80
40
3C
20
10
30
ENDCHAR

STARTCHAR egrave
ENCODING 232
SWIDTH 530 0
DWIDTH 7 0
BBX 6 11 1 0
BITMAP
60
10
00
38
44
84
FC
80
80
44
38
ENDCHAR

STARTCHAR eacute
ENCODING 233
SWIDTH 530 0
DWIDTH 7 0
BBX 6 11 1 0
BITMAP
18
20
00
38
44
84
FC
80
80
44
38
ENDCHAR

STARTCHAR ecircumflex
ENCODING 234
SWIDTH 530 0
DWIDTH 7 0
BBX 6 11 1 0
BITMAP
38
44
00
38
44
84
FC
80
80
44
38
ENDCHAR

STARTCHAR edieresis
ENCODING 235
SWIDTH 530 0
DWIDTH 7 0
BBX 6 10 1 0
BITMAP
48
00
38
44
84
FC
80
80
44
38
ENDCHAR

STARTCHAR igrave
ENCODING 236
SWIDTH 307 0
DWIDTH 4 0
BBX 3 11 1 0
BITMAP
C0
20
00
C0
40
40
40
40
40
40
E0
ENDCHAR

STARTCHAR iacute
ENCODING 237
SWIDTH 307 0
DWIDTH 4 0
BBX 3 11 1 0
BITMAP
60
80
00
C0
40
40
40
40
40
40
E0
ENDCHAR

STARTCHAR icircumflex
ENCODING 238
SWIDTH 307 0
DWIDTH 4 0
BBX 5 11 2 0
BITMAP
70
88
00
60
20
20
20
20
20
20
70
ENDCHAR

STARTCHAR idieresis
ENCODING 239
SWIDTH 307 0
DWIDTH 4 0
BBX 4 10 2 0
BITMAP
90
00
60
20
20
20
20
20
20
70
ENDCHAR

STARTCHAR eth
ENCODING 240
SWIDTH 596 0
DWIDTH 8 0
BBX 7 11 1 0
BITMAP
D8
30
28
44
3E
46
82
82
82
44
38
ENDCHAR

STARTCHAR ntilde
ENCODING 241
SWIDTH 633 0
DWIDTH 9 0
BBX 8 11 1 0
BITMAP
64
5C
00
DC
62
42
42
42
42
42
E7
ENDCHAR

STARTCHAR ograve
ENCODING 242
SWIDTH 602 0
DWIDTH 8 0
BBX 7 11 1 0
BITMAP
30
08
00
38
44
82
82
82
82
44
38
ENDCHAR

STARTCHAR oacute
ENCODING 243
SWIDTH 602 0
DWIDTH 8 0
BBX 7 11 1 0
BITMAP
18
20
00
38
44
82
82
82
82
44
38
ENDCHAR

STARTCHAR ocircumflex
ENCODING 244
SWIDTH 602 0
DWIDTH 8 0
BBX 7 11 1 0
BITMAP
38
44
00
38
44
82
82
82
82
44
38
ENDCHAR

STARTCHAR otilde
ENCODING 245
SWIDTH 602 0
DWIDTH 8 0
BBX 7 11 1 0
BITMAP
64
5C
00
38
44
82
82
82
82
44
38
ENDCHAR

STARTCHAR odieresis
ENCODING 246
SWIDTH 602 0
DWIDTH 8 0
BBX 7 10 1 0
BITMAP
24
00
38
44
82
82
82
82
44
38
ENDCHAR

STARTCHAR divide
ENCODING 247
SWIDTH 608 0
DWIDTH 9 0
BBX 7 7 1 1
BITMAP
10
00
00
FE
00
00
10
ENDCHAR

STARTCHAR oslash
ENCODING 248
SWIDTH 602 0
DWIDTH 8 0
BBX 7 8 1 0
BITMAP
3A
44
8A
92
92
A2
44
B8
ENDCHAR

STARTCHAR ugrave
ENCODING 249
SWIDTH 633 0
DWIDTH 9 0
BBX 8 11 0 0
BITMAP
30
08
00
C6
42
42
42
42
42
46
3B
ENDCHAR

STARTCHAR uacute
ENCODING 250
SWIDTH 633 0
DWIDTH 9 0
BBX 8 11 0 0
BITMAP
0C
10
00
C6
42
42
42
42
42
46
3B
ENDCHAR

STARTCHAR ucircumflex
ENCODING 251
SWIDTH 633 0
DWIDTH 9 0
BBX 8 11 0 0
BITMAP
38
44
00
C6
42
42
42
42
42
46
3B
ENDCHAR

STARTCHAR udieresis
ENCODING 252
SWIDTH 633 0
DWIDTH 9 0
BBX 8 10 0 0
BITMAP
24
00
C6
42
42
42
42
42
46
3B
ENDCHAR

STARTCHAR yacute
ENCODING 253
SWIDTH 551 0
DWIDTH 8 0
BBX 8 14 0 -3
BITMAP
0C
10
00
E3
42
22
22
24
14
14
08
10
30
60
ENDCHAR

STARTCHAR thorn
ENCODING 254
SWIDTH 642 0
DWIDTH 9 0
BBX 7 13 1 -3
BITMAP
C0
40
5C
66
42
42
42
42
44
7C
40
40
E0
ENDCHAR

STARTCHAR ydieresis
ENCODING 255
SWIDTH 551 0
DWIDTH 8 0
BBX 8 13 0 -3
BITMAP
24
00
E3
42
22
22
24
14
14
08
10
30
60
ENDCHAR
ENDFONT
